<?xml version="1.0" encoding="utf-8"?>
<!-- Generator: Adobe Illustrator 26.1.0, SVG Export Plug-In . SVG Version: 6.00 Build 0)  -->
<svg version="1.1" id="Layer_1" xmlns="http://www.w3.org/2000/svg" xmlns:xlink="http://www.w3.org/1999/xlink" x="0px" y="0px"
	 viewBox="0 0 320 40" style="enable-background:new 0 0 320 40;" xml:space="preserve">
<style type="text/css">
	.st0{fill:url(#SVGID_1_);}
	.st1{fill:url(#SVGID_00000046298801370288685710000004461061763202850176_);}
	.st2{fill:url(#SVGID_00000137109604072445090860000001930616961528125827_);}
	.st3{fill:url(#SVGID_00000158710758143373539340000010946377852671007118_);}
	.st4{fill:url(#SVGID_00000106124020161801864480000011883699664614324888_);}
	.st5{fill:url(#SVGID_00000122683442973187353770000013862437490373150354_);}
	.st6{fill:url(#SVGID_00000054963670438539742040000015901362778271614360_);}
	.st7{fill:url(#SVGID_00000060006623181294768810000005056252530965151114_);}
	.st8{fill:url(#SVGID_00000050621908023478237790000015097828698103716240_);}
	.st9{fill:url(#SVGID_00000091717873062714926250000004415109827531393703_);}
</style>
<g>
	<g>
		<path d="M0,23.5C0,14.3,7.1,7.6,16.5,7.6c5,0,9.4,1.8,12.2,5.2l-3.7,3.5c-2.3-2.4-5-3.6-8.3-3.6c-6.4,0-11,4.5-11,10.9
			c0,6.4,4.6,10.9,11,10.9c3.2,0,6-1.2,8.3-3.7l3.7,3.5c-2.9,3.4-7.2,5.2-12.3,5.2C7.1,39.4,0,32.7,0,23.5z"/>
		<path d="M53.7,31.8H38.2l-3,7.1h-5.9L43.2,8h5.6l13.9,30.9h-6L53.7,31.8z M51.8,27.3l-5.8-13.5l-5.8,13.5H51.8z"/>
		<path d="M94.1,8v30.9h-4.7L72.4,18v20.9h-5.7V8h4.7l17,20.9V8H94.1z"/>
		<path d="M129.9,8v30.9h-4.7l-17-20.9v20.9h-5.7V8h4.7l17,20.9V8H129.9z"/>
		<path d="M158.2,31.8h-15.4l-3,7.1h-5.9L147.7,8h5.6l13.9,30.9h-6L158.2,31.8z M156.3,27.3l-5.8-13.5l-5.8,13.5H156.3z"/>
		<path d="M207.3,0.6l-16.7,38.3h-7L166.8,0.6h7.7l12.8,29.6l12.9-29.6H207.3z"/>
		<path d="M230.9,29.7c0,5.2-3.9,9.7-12.2,9.7c-4.4,0-8.7-1.3-11.6-3.6l2.5-4.5c2.2,1.9,5.6,3,9,3c4.1,0,6.5-1.8,6.5-4.7
			c0-2.8-2-4.6-6.7-4.6h-2.8v-3.9l7-8.3h-14V8h21.1v3.8l-7.5,8.9C227.9,21.6,230.9,25,230.9,29.7z"/>
		<path d="M257,38.9l-6.3-9c-0.4,0-0.8,0-1.2,0h-7v9h-5.7V8h12.7c8.1,0,13.2,4.1,13.2,11c0,4.7-2.4,8.1-6.6,9.8l7.1,10.2H257z
			 M249.3,12.9h-6.7v12.3h6.7c5,0,7.6-2.3,7.6-6.2C256.9,15.2,254.3,12.9,249.3,12.9z"/>
		<path d="M266.5,35.7l2-4.5c2.5,2,6.4,3.4,10.2,3.4c4.8,0,6.8-1.7,6.8-4c0-6.7-18.4-2.3-18.4-13.8c0-5,4-9.2,12.4-9.2
			c3.7,0,7.6,1,10.3,2.7l-1.8,4.5c-2.8-1.6-5.8-2.4-8.5-2.4c-4.8,0-6.7,1.9-6.7,4.2c0,6.6,18.3,2.3,18.3,13.6c0,4.9-4,9.2-12.5,9.2
			C273.8,39.4,269,37.9,266.5,35.7z"/>
		<path d="M320,34.1v4.8h-23.2V8h22.6v4.8h-16.8v8h14.9v4.7h-14.9v8.5H320z"/>
	</g>
	<g>
		<linearGradient id="SVGID_1_" gradientUnits="userSpaceOnUse" x1="1.610781e-04" y1="20" x2="319.9998" y2="20">
			<stop  offset="3.520566e-02" style="stop-color:#3FFFFE"/>
			<stop  offset="1" style="stop-color:#7F3F98"/>
		</linearGradient>
		<path class="st0" d="M0,23.5C0,14.3,7.1,7.6,16.5,7.6c5,0,9.4,1.8,12.2,5.2l-3.7,3.5c-2.3-2.4-5-3.6-8.3-3.6
			c-6.4,0-11,4.5-11,10.9c0,6.4,4.6,10.9,11,10.9c3.2,0,6-1.2,8.3-3.7l3.7,3.5c-2.9,3.4-7.2,5.2-12.3,5.2C7.1,39.4,0,32.7,0,23.5z"
			/>
		
			<linearGradient id="SVGID_00000023979176134519080140000010714823542252687253_" gradientUnits="userSpaceOnUse" x1="1.610781e-04" y1="20" x2="319.9998" y2="20">
			<stop  offset="3.520566e-02" style="stop-color:#3FFFFE"/>
			<stop  offset="1" style="stop-color:#7F3F98"/>
		</linearGradient>
		<path style="fill:url(#SVGID_00000023979176134519080140000010714823542252687253_);" d="M53.7,31.8H38.2l-3,7.1h-5.9L43.2,8h5.6
			l13.9,30.9h-6L53.7,31.8z M51.8,27.3l-5.8-13.5l-5.8,13.5H51.8z"/>
		
			<linearGradient id="SVGID_00000041270046604845089360000012285450726943033276_" gradientUnits="userSpaceOnUse" x1="1.610781e-04" y1="20" x2="319.9998" y2="20">
			<stop  offset="3.520566e-02" style="stop-color:#3FFFFE"/>
			<stop  offset="1" style="stop-color:#7F3F98"/>
		</linearGradient>
		<path style="fill:url(#SVGID_00000041270046604845089360000012285450726943033276_);" d="M94.1,8v30.9h-4.7L72.4,18v20.9h-5.7V8
			h4.7l17,20.9V8H94.1z"/>
		
			<linearGradient id="SVGID_00000072270381441446568310000000686064918435246483_" gradientUnits="userSpaceOnUse" x1="1.610781e-04" y1="20" x2="319.9998" y2="20">
			<stop  offset="3.520566e-02" style="stop-color:#3FFFFE"/>
			<stop  offset="1" style="stop-color:#7F3F98"/>
		</linearGradient>
		<path style="fill:url(#SVGID_00000072270381441446568310000000686064918435246483_);" d="M129.9,8v30.9h-4.7l-17-20.9v20.9h-5.7V8
			h4.7l17,20.9V8H129.9z"/>
		
			<linearGradient id="SVGID_00000129180883092107466420000004920748207374817470_" gradientUnits="userSpaceOnUse" x1="1.610781e-04" y1="20" x2="319.9998" y2="20">
			<stop  offset="3.520566e-02" style="stop-color:#3FFFFE"/>
			<stop  offset="1" style="stop-color:#7F3F98"/>
		</linearGradient>
		<path style="fill:url(#SVGID_00000129180883092107466420000004920748207374817470_);" d="M158.2,31.8h-15.4l-3,7.1h-5.9L147.7,8
			h5.6l13.9,30.9h-6L158.2,31.8z M156.3,27.3l-5.8-13.5l-5.8,13.5H156.3z"/>
		
			<linearGradient id="SVGID_00000036968897819708086340000012773221569820597940_" gradientUnits="userSpaceOnUse" x1="1.610781e-04" y1="20" x2="319.9998" y2="20">
			<stop  offset="3.520566e-02" style="stop-color:#3FFFFE"/>
			<stop  offset="1" style="stop-color:#7F3F98"/>
		</linearGradient>
		<path style="fill:url(#SVGID_00000036968897819708086340000012773221569820597940_);" d="M207.3,0.6l-16.7,38.3h-7L166.8,0.6h7.7
			l12.8,29.6l12.9-29.6H207.3z"/>
		
			<linearGradient id="SVGID_00000131354818490435791540000004178020132549736371_" gradientUnits="userSpaceOnUse" x1="1.610781e-04" y1="20" x2="319.9998" y2="20">
			<stop  offset="3.520566e-02" style="stop-color:#3FFFFE"/>
			<stop  offset="1" style="stop-color:#7F3F98"/>
		</linearGradient>
		<path style="fill:url(#SVGID_00000131354818490435791540000004178020132549736371_);" d="M230.9,29.7c0,5.2-3.9,9.7-12.2,9.7
			c-4.4,0-8.7-1.3-11.6-3.6l2.5-4.5c2.2,1.9,5.6,3,9,3c4.1,0,6.5-1.8,6.5-4.7c0-2.8-2-4.6-6.7-4.6h-2.8v-3.9l7-8.3h-14V8h21.1v3.8
			l-7.5,8.9C227.9,21.6,230.9,25,230.9,29.7z"/>
		
			<linearGradient id="SVGID_00000137094834678636801610000006300017741124134579_" gradientUnits="userSpaceOnUse" x1="1.610781e-04" y1="20" x2="319.9998" y2="20">
			<stop  offset="3.520566e-02" style="stop-color:#3FFFFE"/>
			<stop  offset="1" style="stop-color:#7F3F98"/>
		</linearGradient>
		<path style="fill:url(#SVGID_00000137094834678636801610000006300017741124134579_);" d="M257,38.9l-6.3-9c-0.4,0-0.8,0-1.2,0h-7
			v9h-5.7V8h12.7c8.1,0,13.2,4.1,13.2,11c0,4.7-2.4,8.1-6.6,9.8l7.1,10.2H257z M249.3,12.9h-6.7v12.3h6.7c5,0,7.6-2.3,7.6-6.2
			C256.9,15.2,254.3,12.9,249.3,12.9z"/>
		
			<linearGradient id="SVGID_00000137133394452898763520000009420178545391550384_" gradientUnits="userSpaceOnUse" x1="1.610781e-04" y1="20" x2="319.9998" y2="20">
			<stop  offset="3.520566e-02" style="stop-color:#3FFFFE"/>
			<stop  offset="1" style="stop-color:#7F3F98"/>
		</linearGradient>
		<path style="fill:url(#SVGID_00000137133394452898763520000009420178545391550384_);" d="M266.5,35.7l2-4.5
			c2.5,2,6.4,3.4,10.2,3.4c4.8,0,6.8-1.7,6.8-4c0-6.7-18.4-2.3-18.4-13.8c0-5,4-9.2,12.4-9.2c3.7,0,7.6,1,10.3,2.7l-1.8,4.5
			c-2.8-1.6-5.8-2.4-8.5-2.4c-4.8,0-6.7,1.9-6.7,4.2c0,6.6,18.3,2.3,18.3,13.6c0,4.9-4,9.2-12.5,9.2C273.8,39.4,269,37.9,266.5,35.7
			z"/>
		
			<linearGradient id="SVGID_00000101814122257852335040000009912158045308450190_" gradientUnits="userSpaceOnUse" x1="1.610781e-04" y1="20" x2="319.9998" y2="20">
			<stop  offset="3.520566e-02" style="stop-color:#3FFFFE"/>
			<stop  offset="1" style="stop-color:#7F3F98"/>
		</linearGradient>
		<path style="fill:url(#SVGID_00000101814122257852335040000009912158045308450190_);" d="M320,34.1v4.8h-23.2V8h22.6v4.8h-16.8v8
			h14.9v4.7h-14.9v8.5H320z"/>
	</g>
</g>
</svg>
